<mxfile host="Electron" modified="2023-08-19T23:19:50.946Z" agent="Mozilla/5.0 (Windows NT 10.0; Win64; x64) AppleWebKit/537.36 (KHTML, like Gecko) draw.io/21.5.1 Chrome/112.0.5615.204 Electron/24.6.0 Safari/537.36" etag="Q9CvtmTHX6FE8NwzBZ_7" version="21.5.1" type="device">
  <diagram name="Page-1" id="aP_VuUjZQrEKD5SI21JO">
    <mxGraphModel dx="2044" dy="824" grid="1" gridSize="10" guides="1" tooltips="1" connect="1" arrows="1" fold="1" page="1" pageScale="1" pageWidth="850" pageHeight="1100" math="0" shadow="0">
      <root>
        <mxCell id="0" />
        <mxCell id="1" parent="0" />
        <mxCell id="SMOCp_e4keja0VyUR0qE-1" value="Main ASG" style="points=[[0,0],[0.25,0],[0.5,0],[0.75,0],[1,0],[1,0.25],[1,0.5],[1,0.75],[1,1],[0.75,1],[0.5,1],[0.25,1],[0,1],[0,0.75],[0,0.5],[0,0.25]];outlineConnect=0;gradientColor=none;html=1;whiteSpace=wrap;fontSize=12;fontStyle=1;container=1;pointerEvents=0;collapsible=0;recursiveResize=0;shape=mxgraph.aws4.groupCenter;grIcon=mxgraph.aws4.group_auto_scaling_group;grStroke=1;strokeColor=#1699fe;fillColor=none;verticalAlign=top;align=center;fontColor=#1699fe;dashed=1;spacingTop=25;" parent="1" vertex="1">
          <mxGeometry x="570" y="290" width="130" height="440" as="geometry" />
        </mxCell>
        <mxCell id="SMOCp_e4keja0VyUR0qE-2" value="v1" style="outlineConnect=0;dashed=0;verticalLabelPosition=bottom;verticalAlign=top;align=center;html=1;shape=mxgraph.aws3.ec2;fillColor=#1699fe;gradientColor=none;" parent="SMOCp_e4keja0VyUR0qE-1" vertex="1">
          <mxGeometry x="26.75" y="60" width="76.5" height="93" as="geometry" />
        </mxCell>
        <mxCell id="SMOCp_e4keja0VyUR0qE-3" value="v1" style="outlineConnect=0;dashed=0;verticalLabelPosition=bottom;verticalAlign=top;align=center;html=1;shape=mxgraph.aws3.ec2;fillColor=#1699fe;gradientColor=none;" parent="SMOCp_e4keja0VyUR0qE-1" vertex="1">
          <mxGeometry x="26.75" y="190" width="76.5" height="93" as="geometry" />
        </mxCell>
        <mxCell id="SMOCp_e4keja0VyUR0qE-4" value="v1" style="outlineConnect=0;dashed=0;verticalLabelPosition=bottom;verticalAlign=top;align=center;html=1;shape=mxgraph.aws3.ec2;fillColor=#1699fe;gradientColor=none;" parent="SMOCp_e4keja0VyUR0qE-1" vertex="1">
          <mxGeometry x="26.75" y="320" width="76.5" height="93" as="geometry" />
        </mxCell>
        <mxCell id="SMOCp_e4keja0VyUR0qE-5" value="Temp ASG" style="points=[[0,0],[0.25,0],[0.5,0],[0.75,0],[1,0],[1,0.25],[1,0.5],[1,0.75],[1,1],[0.75,1],[0.5,1],[0.25,1],[0,1],[0,0.75],[0,0.5],[0,0.25]];outlineConnect=0;gradientColor=none;html=1;whiteSpace=wrap;fontSize=12;fontStyle=1;container=1;pointerEvents=0;collapsible=0;recursiveResize=0;shape=mxgraph.aws4.groupCenter;grIcon=mxgraph.aws4.group_auto_scaling_group;grStroke=1;strokeColor=#00b800;fillColor=none;verticalAlign=top;align=center;fontColor=#00b800;dashed=1;spacingTop=25;" parent="1" vertex="1">
          <mxGeometry x="940" y="740" width="130" height="440" as="geometry" />
        </mxCell>
        <mxCell id="SMOCp_e4keja0VyUR0qE-6" value="v2" style="outlineConnect=0;dashed=0;verticalLabelPosition=bottom;verticalAlign=top;align=center;html=1;shape=mxgraph.aws3.ec2;fillColor=#33ff33;gradientColor=none;" parent="SMOCp_e4keja0VyUR0qE-5" vertex="1">
          <mxGeometry x="26.75" y="60" width="76.5" height="93" as="geometry" />
        </mxCell>
        <mxCell id="SMOCp_e4keja0VyUR0qE-7" value="v2" style="outlineConnect=0;dashed=0;verticalLabelPosition=bottom;verticalAlign=top;align=center;html=1;shape=mxgraph.aws3.ec2;fillColor=#33ff33;gradientColor=none;" parent="SMOCp_e4keja0VyUR0qE-5" vertex="1">
          <mxGeometry x="26.75" y="190" width="76.5" height="93" as="geometry" />
        </mxCell>
        <mxCell id="SMOCp_e4keja0VyUR0qE-8" value="v2" style="outlineConnect=0;dashed=0;verticalLabelPosition=bottom;verticalAlign=top;align=center;html=1;shape=mxgraph.aws3.ec2;fillColor=#33ff33;gradientColor=none;" parent="SMOCp_e4keja0VyUR0qE-5" vertex="1">
          <mxGeometry x="26.75" y="320" width="76.5" height="93" as="geometry" />
        </mxCell>
        <mxCell id="MRStQCvUCbw8CJtAnHMZ-1" style="edgeStyle=orthogonalEdgeStyle;rounded=0;orthogonalLoop=1;jettySize=auto;html=1;entryX=0;entryY=0.5;entryDx=0;entryDy=0;entryPerimeter=0;" edge="1" parent="1" source="SMOCp_e4keja0VyUR0qE-15" target="SMOCp_e4keja0VyUR0qE-2">
          <mxGeometry relative="1" as="geometry">
            <Array as="points">
              <mxPoint x="560" y="527" />
              <mxPoint x="560" y="397" />
            </Array>
          </mxGeometry>
        </mxCell>
        <mxCell id="MRStQCvUCbw8CJtAnHMZ-2" style="edgeStyle=orthogonalEdgeStyle;rounded=0;orthogonalLoop=1;jettySize=auto;html=1;entryX=0;entryY=0.5;entryDx=0;entryDy=0;entryPerimeter=0;" edge="1" parent="1" source="SMOCp_e4keja0VyUR0qE-15" target="SMOCp_e4keja0VyUR0qE-3">
          <mxGeometry relative="1" as="geometry" />
        </mxCell>
        <mxCell id="MRStQCvUCbw8CJtAnHMZ-3" style="edgeStyle=orthogonalEdgeStyle;rounded=0;orthogonalLoop=1;jettySize=auto;html=1;entryX=0;entryY=0.5;entryDx=0;entryDy=0;entryPerimeter=0;" edge="1" parent="1" source="SMOCp_e4keja0VyUR0qE-15" target="SMOCp_e4keja0VyUR0qE-4">
          <mxGeometry relative="1" as="geometry">
            <Array as="points">
              <mxPoint x="560" y="527" />
              <mxPoint x="560" y="657" />
            </Array>
          </mxGeometry>
        </mxCell>
        <mxCell id="SMOCp_e4keja0VyUR0qE-15" value="Application Load Balancer" style="outlineConnect=0;dashed=0;verticalLabelPosition=bottom;verticalAlign=top;align=center;html=1;shape=mxgraph.aws3.application_load_balancer;fillColor=#F58534;gradientColor=none;" parent="1" vertex="1">
          <mxGeometry x="425" y="490.5" width="69" height="72" as="geometry" />
        </mxCell>
        <mxCell id="MRStQCvUCbw8CJtAnHMZ-4" value="Main ASG" style="points=[[0,0],[0.25,0],[0.5,0],[0.75,0],[1,0],[1,0.25],[1,0.5],[1,0.75],[1,1],[0.75,1],[0.5,1],[0.25,1],[0,1],[0,0.75],[0,0.5],[0,0.25]];outlineConnect=0;gradientColor=none;html=1;whiteSpace=wrap;fontSize=12;fontStyle=1;container=1;pointerEvents=0;collapsible=0;recursiveResize=0;shape=mxgraph.aws4.groupCenter;grIcon=mxgraph.aws4.group_auto_scaling_group;grStroke=1;strokeColor=#1699fe;fillColor=none;verticalAlign=top;align=center;fontColor=#1699fe;dashed=1;spacingTop=25;" vertex="1" parent="1">
          <mxGeometry x="940" y="290" width="130" height="440" as="geometry" />
        </mxCell>
        <mxCell id="MRStQCvUCbw8CJtAnHMZ-5" value="v1" style="outlineConnect=0;dashed=0;verticalLabelPosition=bottom;verticalAlign=top;align=center;html=1;shape=mxgraph.aws3.ec2;fillColor=#1699fe;gradientColor=none;" vertex="1" parent="MRStQCvUCbw8CJtAnHMZ-4">
          <mxGeometry x="26.75" y="60" width="76.5" height="93" as="geometry" />
        </mxCell>
        <mxCell id="MRStQCvUCbw8CJtAnHMZ-6" value="v1" style="outlineConnect=0;dashed=0;verticalLabelPosition=bottom;verticalAlign=top;align=center;html=1;shape=mxgraph.aws3.ec2;fillColor=#1699fe;gradientColor=none;" vertex="1" parent="MRStQCvUCbw8CJtAnHMZ-4">
          <mxGeometry x="26.75" y="190" width="76.5" height="93" as="geometry" />
        </mxCell>
        <mxCell id="MRStQCvUCbw8CJtAnHMZ-7" value="v1" style="outlineConnect=0;dashed=0;verticalLabelPosition=bottom;verticalAlign=top;align=center;html=1;shape=mxgraph.aws3.ec2;fillColor=#1699fe;gradientColor=none;" vertex="1" parent="MRStQCvUCbw8CJtAnHMZ-4">
          <mxGeometry x="26.75" y="320" width="76.5" height="93" as="geometry" />
        </mxCell>
        <mxCell id="MRStQCvUCbw8CJtAnHMZ-8" style="edgeStyle=orthogonalEdgeStyle;rounded=0;orthogonalLoop=1;jettySize=auto;html=1;entryX=0;entryY=0.5;entryDx=0;entryDy=0;entryPerimeter=0;" edge="1" parent="1" source="MRStQCvUCbw8CJtAnHMZ-11" target="MRStQCvUCbw8CJtAnHMZ-5">
          <mxGeometry relative="1" as="geometry">
            <Array as="points">
              <mxPoint x="935" y="527" />
              <mxPoint x="935" y="397" />
            </Array>
          </mxGeometry>
        </mxCell>
        <mxCell id="MRStQCvUCbw8CJtAnHMZ-9" style="edgeStyle=orthogonalEdgeStyle;rounded=0;orthogonalLoop=1;jettySize=auto;html=1;entryX=0;entryY=0.5;entryDx=0;entryDy=0;entryPerimeter=0;" edge="1" parent="1" source="MRStQCvUCbw8CJtAnHMZ-11" target="MRStQCvUCbw8CJtAnHMZ-6">
          <mxGeometry relative="1" as="geometry" />
        </mxCell>
        <mxCell id="MRStQCvUCbw8CJtAnHMZ-10" style="edgeStyle=orthogonalEdgeStyle;rounded=0;orthogonalLoop=1;jettySize=auto;html=1;entryX=0;entryY=0.5;entryDx=0;entryDy=0;entryPerimeter=0;" edge="1" parent="1" source="MRStQCvUCbw8CJtAnHMZ-11" target="MRStQCvUCbw8CJtAnHMZ-7">
          <mxGeometry relative="1" as="geometry">
            <Array as="points">
              <mxPoint x="935" y="527" />
              <mxPoint x="935" y="657" />
            </Array>
          </mxGeometry>
        </mxCell>
        <mxCell id="MRStQCvUCbw8CJtAnHMZ-11" value="Application Load Balancer" style="outlineConnect=0;dashed=0;verticalLabelPosition=bottom;verticalAlign=top;align=center;html=1;shape=mxgraph.aws3.application_load_balancer;fillColor=#F58534;gradientColor=none;" vertex="1" parent="1">
          <mxGeometry x="800" y="490.5" width="69" height="72" as="geometry" />
        </mxCell>
        <mxCell id="MRStQCvUCbw8CJtAnHMZ-12" value="Temp ASG" style="points=[[0,0],[0.25,0],[0.5,0],[0.75,0],[1,0],[1,0.25],[1,0.5],[1,0.75],[1,1],[0.75,1],[0.5,1],[0.25,1],[0,1],[0,0.75],[0,0.5],[0,0.25]];outlineConnect=0;gradientColor=none;html=1;whiteSpace=wrap;fontSize=12;fontStyle=1;container=1;pointerEvents=0;collapsible=0;recursiveResize=0;shape=mxgraph.aws4.groupCenter;grIcon=mxgraph.aws4.group_auto_scaling_group;grStroke=1;strokeColor=#00b800;fillColor=none;verticalAlign=top;align=center;fontColor=#00b800;dashed=1;spacingTop=25;" vertex="1" parent="1">
          <mxGeometry x="1290" y="290" width="130" height="440" as="geometry" />
        </mxCell>
        <mxCell id="MRStQCvUCbw8CJtAnHMZ-13" value="v2" style="outlineConnect=0;dashed=0;verticalLabelPosition=bottom;verticalAlign=top;align=center;html=1;shape=mxgraph.aws3.ec2;fillColor=#33ff33;gradientColor=none;" vertex="1" parent="MRStQCvUCbw8CJtAnHMZ-12">
          <mxGeometry x="26.75" y="60" width="76.5" height="93" as="geometry" />
        </mxCell>
        <mxCell id="MRStQCvUCbw8CJtAnHMZ-14" value="v2" style="outlineConnect=0;dashed=0;verticalLabelPosition=bottom;verticalAlign=top;align=center;html=1;shape=mxgraph.aws3.ec2;fillColor=#33ff33;gradientColor=none;" vertex="1" parent="MRStQCvUCbw8CJtAnHMZ-12">
          <mxGeometry x="26.75" y="190" width="76.5" height="93" as="geometry" />
        </mxCell>
        <mxCell id="MRStQCvUCbw8CJtAnHMZ-15" value="v2" style="outlineConnect=0;dashed=0;verticalLabelPosition=bottom;verticalAlign=top;align=center;html=1;shape=mxgraph.aws3.ec2;fillColor=#33ff33;gradientColor=none;" vertex="1" parent="MRStQCvUCbw8CJtAnHMZ-12">
          <mxGeometry x="26.75" y="320" width="76.5" height="93" as="geometry" />
        </mxCell>
        <mxCell id="MRStQCvUCbw8CJtAnHMZ-20" style="edgeStyle=orthogonalEdgeStyle;rounded=0;orthogonalLoop=1;jettySize=auto;html=1;entryX=0;entryY=0.5;entryDx=0;entryDy=0;entryPerimeter=0;" edge="1" parent="1" source="MRStQCvUCbw8CJtAnHMZ-23" target="MRStQCvUCbw8CJtAnHMZ-13">
          <mxGeometry relative="1" as="geometry">
            <Array as="points">
              <mxPoint x="1285" y="527" />
              <mxPoint x="1285" y="397" />
            </Array>
            <mxPoint x="1316.75" y="396.5" as="targetPoint" />
          </mxGeometry>
        </mxCell>
        <mxCell id="MRStQCvUCbw8CJtAnHMZ-21" style="edgeStyle=orthogonalEdgeStyle;rounded=0;orthogonalLoop=1;jettySize=auto;html=1;entryX=0;entryY=0.5;entryDx=0;entryDy=0;entryPerimeter=0;" edge="1" parent="1" source="MRStQCvUCbw8CJtAnHMZ-23" target="MRStQCvUCbw8CJtAnHMZ-14">
          <mxGeometry relative="1" as="geometry">
            <mxPoint x="1316.75" y="526.5" as="targetPoint" />
          </mxGeometry>
        </mxCell>
        <mxCell id="MRStQCvUCbw8CJtAnHMZ-22" style="edgeStyle=orthogonalEdgeStyle;rounded=0;orthogonalLoop=1;jettySize=auto;html=1;entryX=0;entryY=0.5;entryDx=0;entryDy=0;entryPerimeter=0;" edge="1" parent="1" source="MRStQCvUCbw8CJtAnHMZ-23" target="MRStQCvUCbw8CJtAnHMZ-15">
          <mxGeometry relative="1" as="geometry">
            <Array as="points">
              <mxPoint x="1285" y="527" />
              <mxPoint x="1285" y="657" />
            </Array>
            <mxPoint x="1316.75" y="656.5" as="targetPoint" />
          </mxGeometry>
        </mxCell>
        <mxCell id="MRStQCvUCbw8CJtAnHMZ-23" value="Application Load Balancer" style="outlineConnect=0;dashed=0;verticalLabelPosition=bottom;verticalAlign=top;align=center;html=1;shape=mxgraph.aws3.application_load_balancer;fillColor=#F58534;gradientColor=none;" vertex="1" parent="1">
          <mxGeometry x="1150" y="490.5" width="69" height="72" as="geometry" />
        </mxCell>
      </root>
    </mxGraphModel>
  </diagram>
</mxfile>
